<svg xmlns="http://www.w3.org/2000/svg" viewBox="0 0 512 512"><path d="m501 344-64-35 64-34c15-8 15-30 0-38l-64-34 64-35c15-8 15-29 0-37L266 3c-6-4-14-4-20 0L11 131c-15 8-15 29 0 37l64 35-64 34c-15 8-15 30 0 38l64 34-64 35c-15 8-15 29 0 37l235 128c6 4 14 4 20 0l235-128c15-8 15-29 0-37zM256 46l190 103-190 104L66 149 256 46zM119 227l127 69 1 1h1a21 21 0 0 0 3 1 21 21 0 0 0 10 0 22 22 0 0 0 3-1h1l1-1 127-69 53 29-190 104L66 256l53-29zm137 239L66 363l53-29 127 69h1l1 1a21 21 0 0 0 3 1h10a22 22 0 0 0 3-1l1-1h1l127-69 53 29-190 103z"/></svg>