<svg width="100%" height="100%" viewBox="0 0 380.7 380.7" xmlns="http://www.w3.org/2000/svg"><path d="M344.3 327.4h.1l-91-92.3c-5-1.5-34.5-14.5-35-38.8a76 76 0 0 1 58.1-28.6 50 50 0 0 0 34.4-12.3l2.3-2.3 67.5-85-8-8.2-82.7 87.5-9.7-9.8 85-85-7.2-7.1-85.5 85.5-8-8.1L350 37.4l-8-7.9-85.4 85.5-9.6-9.5 88.3-82.8-7.5-7.5-81.3 63.4-4 3.5a50 50 0 0 0-14.3 41 77.5 77.5 0 0 1-15 42.6C61.8 17.3 4.6 33.2 4.6 33.2L0 37.8l165 165.4L36.3 332l-.3.3a19.5 19.5 0 0 0 27.6 27.6l.2-.3 128.7-128.7 20.8 20.8L316.6 355h.1l.3.3a19.5 19.5 0 1 0 27.6-27.7l-.3-.2z"/></svg>