<svg viewBox="0 0 487.7 487.7" xmlns="http://www.w3.org/2000/svg"><path d="m485.4 406.9-39.1-85.7s16.4-71.8 16.4-72.9c.1-6.1-2.2-12-6.5-16.4L379 152a37 37 0 0 1-.4 40.4l11.5 48a27.6 27.6 0 0 1-17.7 32.5L326 288.8a24.9 24.9 0 0 0-13 20.7L308.1 416a25 25 0 1 0 49.8 2.2l4-92.2 36.3-18.7-2.5 10.5a24.9 24.9 0 0 0 1.6 16.2l42.7 93.5a25 25 0 1 0 45.3-20.7z"/><path d="M332.1 213.3v12l-77.2 26.4a20.8 20.8 0 1 0 13.5 39.3l91-31.3c8.3-2.8 14-10.6 14-19.4l.4-42.1c-4.9 5-11.2 8.6-18.5 10.2l-23.2 5zM212.3 117.2c17 9.7 38.1 4.8 49.5-10.5a38.2 38.2 0 0 0 64.4 20.5A38.3 38.3 0 1 0 268.8 77 38.1 38.1 0 0 0 198 65a38.3 38.3 0 0 0 14.3 52.3z"/><path d="m260 312-66.7-41.4 23.5-41.3 9.7 14.3c1.4 2 3.3 3.7 5.4 5.1a37.2 37.2 0 0 1 17.6-12.7l37.5-13-1.5.4c-3.9.9-7.7.4-11-1.1L231.7 203l-33.2-15 79.5 18c3 .6 6 .6 9 0l64.7-14a20.8 20.8 0 1 0-8.8-40.6l-60.3 13-75-16.9 24.1.5c-1.5-1.2-3-2.4-4.8-3.4l-12.2-7a33 33 0 0 0-45 12.4L70.5 332.7 6.8 400.1A25 25 0 1 0 43 434.3l66.3-70.1c1.7-1.8 3.1-3.9 4.2-6.1L143 298l.2.1 79 49.1 1.1 70.4a25 25 0 0 0 25 24.5h.3a25 25 0 0 0 24.5-25.3l-1.3-84a25 25 0 0 0-11.8-20.7z"/></svg>