<svg viewBox="0 0 512 512" xmlns="http://www.w3.org/2000/svg"><path d="M503 214h-14v-12c0-25-19-46-43-50v-2a51 51 0 0 0-102 0v64H168v-64a51 51 0 0 0-102 0v2c-24 4-43 25-43 50v12H9c-5 0-9 4-9 9v66c0 5 4 9 9 9h14v12c0 25 19 46 43 50v2a51 51 0 0 0 102 0v-64h176v64a51 51 0 0 0 102 0v-2c24-4 43-25 43-50v-12h14c5 0 9-4 9-9v-66c0-5-4-9-9-9zM23 280h-6v-48h6v48zm43 63c-15-4-25-17-25-33V202c0-16 10-29 25-33v174zm85 19a34 34 0 0 1-68 0V150a34 34 0 0 1 68 0v212zm33-82h-16v-48h16v48zm127 0H201v-48h110v48zm33 0h-16v-48h16v48zm85 82a34 34 0 0 1-68 0V150a34 34 0 0 1 68 0v212zm42-52c0 16-10 29-25 33V169c15 4 25 17 25 33v108zm24-30h-6v-48h6v48z"/></svg>