<svg width="100%" height="100%" viewBox="0 0 490.1 490.1" xmlns="http://www.w3.org/2000/svg"><path d="M463.9 275.85v-52.1a69.9 69.9 0 0 0-139.8 0v131.3c0 43.8-35.4 79.2-79.2 79.2s-79.2-35.4-79.2-79.2v-46.2c69.6-9.3 124.3-64.5 126.1-131v-123c0-11.5-9.4-20.9-20.9-20.9h-48.1c-1.1-10.5-10-18.8-20.7-18.8-11.5 0-20.9 9.4-20.9 20.9v37.5c0 11.5 9.4 20.9 20.9 20.9 10.8 0 18.8-8.3 20.6-18.8h27.4v102.2c0 50-46.9 90.7-104.3 90.7-57.3 0-104.3-40.7-104.3-90.7V75.65h26.2c1.1 10.5 10 18.8 20.7 18.8 11.5 0 19.8-9.4 20.9-20.9v-37.5c0-11.5-9.4-20.9-20.9-20.9-10.8 0-19.7 8.3-20.7 18.8h-47A20.9 20.9 0 0 0 0 54.75v123c0 66.5 53.7 121.8 124.1 131v46.3c0 65.7 54.2 119.9 119.9 119.9 66.7 0 119.9-53.2 122-119.9v-131.4c0-15.6 12.5-28.1 28.1-28.1s28.1 12.5 28.1 28.1v51.4c-16.5 7.7-28.1 24.5-28.1 43.5 0 26.1 20.9 48 48 48 26.1 0 48-20.9 48-48a48.16 48.16 0 0 0-26.2-42.7zm-21.9 50c-4.2 0-7.3-3.1-7.3-7.3s3.1-7.3 7.3-7.3c4.2 0 7.3 4.2 7.3 7.3 0 4.2-3.1 7.3-7.3 7.3z"/></svg>