<svg width="100%" height="100%" viewBox="0 0 512 512" xmlns="http://www.w3.org/2000/svg"><path d="M512 256.2h-40.5V205l-44-52.8h-49.4l-11.7 47h67.2l-5.8-23.2 28.7 34.5v45.7H349.9l-24-96h-46.4v-16.5h-.4a39.1 39.1 0 0 0 16.4-32v-16A31.5 31.5 0 0 0 264 64.2h-16a31.5 31.5 0 0 0-31.5 31.5v14.7c0 13.6 6.6 25.9 16.7 33.3h-.7v16.5H186l-24 96H0v15h16.5v176.5h15v-16.5h449v16.5h15V271.2H512v-15zm-126.4-72 4.3-17H410l4.3 17h-28.8zm-51.2 72h-38.9v-17h16v-31.5h-15v16.5h-33v-49h50.6l20.3 81zm-85.9-17v17h-17v-17h17zm15 0h17v17h-17v-17zm-32-143.5c0-9 7.4-16.5 16.5-16.5h16c9 0 16.5 7.4 16.5 16.5v16a24.6 24.6 0 0 1-27 24.4c-12.3-1.1-22-12.5-22-25.7V95.7zm16 54.6a37.1 37.1 0 0 0 17 0v10h-17v-10zm-49.6 25h50.6v49h-33v-16.6h-15v31.5h16v17h-38.9l20.3-81zm282.6 241h-449v-145h449v145z"/><path d="M16 232.2h112v15H16zM16 208.2h112v15H16zM32 184.2h96v15H32zM343.5 367.2v-79h-175v79h175zm-160-64h145v49h-145v-49z"/><path d="M240 320.2h72v15h-72zM200 320.2h24v15h-24z"/></svg>