<svg viewBox="0 0 512 512" xmlns="http://www.w3.org/2000/svg"><path d="M51.2-25.6c3.4-1.7 5.1-4.3 5.1-7.7s-2.5-6-5.1-7.6L0-66.5c-2.6-1.8-6-1.8-8.5 0s-4.3 5-4.3 7.6v51.2c0 2.6 1.7 6 4.3 7.7zM64-70.8l23.9 12-24 11.9v-24zm439.5 531.6h-17.1v-59.7a25 25 0 0 0-17-24.3v-1.3a34.2 34.2 0 0 0-34.2-34.2 34.2 34.2 0 0 0-34.1 34.2v1.3a25 25 0 0 0-17.1 24.3v59.7h-17v-59.7a25 25 0 0 0-17.1-24.3v-1.3a34.2 34.2 0 0 0-34.2-34.2 34.2 34.2 0 0 0-34.1 34.2v1.3a25 25 0 0 0-17 24.3v59.7h-17.1v-59.7a25 25 0 0 0-17.1-24.3v-1.3a34.2 34.2 0 0 0-34.1-34.2 34.2 34.2 0 0 0-34.2 34.2v1.3a25 25 0 0 0-17 24.3v59.7H128v-59.7a25 25 0 0 0-17-24.3v-1.3a34.2 34.2 0 0 0-34.2-34.2 34.2 34.2 0 0 0-34.1 34.2v1.3a25 25 0 0 0-17.1 24.3v59.7h-17c-5.2 0-8.6 3.4-8.6 8.5v34.2a8 8 0 0 0 8.5 8.5h495a8 8 0 0 0 8.5-8.5v-34.2a8 8 0 0 0-8.5-8.5zm-68.3-102.4a17 17 0 0 1 17 17h-34a17 17 0 0 1 17-17zm-34.1 42.7c0-5.2 3.4-8.6 8.5-8.6h51.2c5.1 0 8.5 3.4 8.5 8.6v59.7h-68.2v-59.7zm-85.4-42.7c9.4 0 17.1 7.7 17.1 17h-34.1a17 17 0 0 1 17-17zm-34.1 42.7c0-5.2 3.4-8.6 8.5-8.6h51.2c5.2 0 8.6 3.4 8.6 8.6v59.7h-68.3v-59.7zm-85.3-42.7a17 17 0 0 1 17 17h-34.1c0-9.3 7.7-17 17-17zM162 401.1c0-5.2 3.4-8.6 8.6-8.6h51.2c5 0 8.5 3.4 8.5 8.6v59.7H162v-59.7zm-85.3-42.7a17 17 0 0 1 17 17h-34a17 17 0 0 1 17-17zm-34.1 42.7c0-5.2 3.4-8.6 8.5-8.6h51.2c5.1 0 8.5 3.4 8.5 8.6v59.7H42.7v-59.7zm452.2 93.8H17.1v-17h477.8v17zM503.5 0H8.5A8 8 0 0 0 0 8.5v307.2c0 5.2 3.4 8.6 8.5 8.6h495c5 0 8.5-3.4 8.5-8.6V8.5a8 8 0 0 0-8.5-8.5zm-76.8 17c.4 90 19 150.7 50.7 171.4l-3 2.7c-26.1 27-30 92.5-30.6 116.1H68.2c-.6-23.6-4.5-89-30.7-115.2a55 55 0 0 0-3.5-3.2C66 168.4 85 107.5 85.3 17h341.4zm68.2 0v161.3c-30.7-9.3-50.3-70.8-51.2-161.2H495zM17.1 17h51.2c-.9 90.5-20.5 152-51.2 161.3V17.1zm0 290.2V198c2.5 1.7 5 3.4 7.6 6 20.5 19.6 25.6 75 26.5 103.2H17.1zm477.8 0h-34.1c.9-28.2 6-83.6 26.5-103.3 2.5-2.5 5-5 7.6-6v109.3z"/></svg>