<svg width="100%" height="100%" viewBox="0 0 512 512" xmlns="http://www.w3.org/2000/svg"><path d="M472.77 267.84h13.4A25.86 25.86 0 0 0 512 242.02c0-6.88-2.68-13.37-7.58-18.29a25.71 25.71 0 0 0-18.25-7.54h-15A99.74 99.74 0 0 0 512 135.73c0-55.05-44.79-99.84-99.83-99.84H25.83C11.6 35.9 0 47.48 0 61.72S11.6 87.55 25.83 87.55h13.41a136.47 136.47 0 0 1 0 96.35h-13.4C11.58 183.9 0 195.5 0 209.73s11.59 25.83 25.83 25.83h15A99.75 99.75 0 0 0 0 316.03a99.23 99.23 0 0 0 29.25 70.59 99.06 99.06 0 0 0 60.96 28.77v51.03a9.68 9.68 0 0 0 14.28 8.53l38.6-20.77 38.59 20.77a9.68 9.68 0 0 0 14.27-8.53v-50.57h290.22A25.86 25.86 0 0 0 512 390.02c0-6.9-2.69-13.38-7.58-18.28a25.71 25.71 0 0 0-18.25-7.54h-13.4a135.32 135.32 0 0 1-7.91-32.36 133.86 133.86 0 0 1 0-31.65 135.48 135.48 0 0 1 7.91-32.35zM25.83 216.2a6.46 6.46 0 0 1 0-12.91h383.35a67.49 67.49 0 0 0 59.39-35.36 67.32 67.32 0 0 0 0-64.38 67.49 67.49 0 0 0-59.39-35.36H25.83a6.46 6.46 0 0 1 0-12.92h386.34c44.36 0 80.46 36.1 80.46 80.47 0 44.35-36.07 80.43-80.41 80.46H25.83zM164.46 143H67.2c.23-4.84.23-9.7 0-14.54h47.96a9.69 9.69 0 0 0 0-19.37H65.08c-1.25-7.27-3-14.48-5.3-21.54h349.4c17.7 0 33.93 9.67 42.36 25.22a48.01 48.01 0 0 1 0 45.92 48.14 48.14 0 0 1-42.36 25.22H59.78c2.3-7.07 4.05-14.27 5.3-21.54h99.38a9.68 9.68 0 1 0 0-19.37zm12.13 307.21-28.91-15.56a9.69 9.69 0 0 0-9.19 0l-28.9 15.56V342.67h67V450.2zm9.68-126.91H99.9a9.69 9.69 0 0 0-9.69 9.68v29.5a47.97 47.97 0 0 1-29.74-23.5 48.26 48.26 0 0 1 0-45.91 48.11 48.11 0 0 1 42.35-25.23h349.4a154.38 154.38 0 0 0-5.35 21.54h-50.03a9.69 9.69 0 0 0 0 19.37h47.9c-.12 2.43-.2 4.86-.2 7.27s.08 4.85.2 7.27h-97.2a9.68 9.68 0 1 0 0 19.37h99.33c1.27 7.3 3.05 14.5 5.34 21.53H195.96v-21.53h31.64a9.69 9.69 0 0 0 0-19.37h-41.33zm299.9 60.27a6.45 6.45 0 1 1 0 12.91H195.96v-12.91h290.21zm-383.35-135.1a67.46 67.46 0 0 0-59.38 35.36 67.66 67.66 0 0 0 0 64.37 67.3 67.3 0 0 0 46.77 34.15v13.54a79.82 79.82 0 0 1-47.26-22.97 79.99 79.99 0 0 1-23.58-56.9c0-44.35 36.07-80.43 80.42-80.46h386.38a6.44 6.44 0 0 1 6.46 6.46c0 3.56-2.9 6.45-6.46 6.45H102.82z"/><circle cx="197.98" cy="152.68" r="9.69"/></svg>