<svg width="100%" height="100%" viewBox="0 0 512 512" xmlns="http://www.w3.org/2000/svg"><path d="M197.6 14.7c.5 4.5 1.1 9.7 1.5 16.3 1.1 15.5 1.7 35.8.8 56.4-.8 18.2-2.7 36.5-6.8 52.2 20 6.5 40.9 15.4 58.2 24.8l1-26.2c-17.5-39.5-35-79.5-43.4-123.5zm29.7 0c11.2 55.3 38 105.5 60.3 159.7a421 421 0 0 1 45.7-12.9l-.6-1v-2.8c.7-45.5 2.6-97.3-6.4-143zm-40.1 142-.3.7a475 475 0 0 1 28 26.8c11.9 12.3 24 25.6 34.4 38.1.6-12.5 1-25 1.3-37.4a347.6 347.6 0 0 0-63.4-28.2zm-10.9 15.5c-2.5 2.2-5.2 4-8.2 5.4a283.3 283.3 0 0 0 17 107.8 156.3 156.3 0 0 0 59.9-39.6 546.2 546.2 0 0 0-68.7-73.6zm166.8 5.5c-16.7 3.8-33 8-49 13.5l-.1 1.7-1.8 24.9c6.6 6.6 13.9 12.8 21.7 18.6l.1-.1a612 612 0 0 1 27.4-38.8l7.2-8.5c-1.7-3.8-3.6-7.5-5.5-11.3zm-195.9 1.2c-28.7-.1-49.3 6.3-52 30.9-3.3 30.8 75.6 202 69.3 261.7-2.9 27.8 42.5 25.5 58.3-2.8 11.6-20.8 13.1-48.2 11.6-74.1l-8-8.5c-46.8-49.3-78.6-121.9-76.4-207.2zm208.7 29.4-.3.4c-8 10-17.4 23.5-26.6 37.4l-.3.5a244.1 244.1 0 0 0 37.8 19.4 247.4 247.4 0 0 0-10.6-57.7zm22.3 13.8c9.1 39.7 8.5 82.5 4.3 126.4-3.8 38.5-74.2 55.5-97.3-.2-8.3 58.5 10.2 88.8 37.3 127 14 19.6 52.3 24 64.8 4.2 27.1-43 18.5-85.7 12.7-134-5-41.3-1.4-87.8-21.8-123.4zm-87 19.2c-.2 10.4-.2 20.7.2 31l12.7-20.7c-4.4-3.3-8.8-6.7-12.9-10.3zm27.8 20.5a772.4 772.4 0 0 0-25 42.8c1 8.1 2.3 16.2 4 24.2 13 62.3 65.2 32.3 66.5 17.9 2.1-21 3.2-41.4 2.9-61.1a259.3 259.3 0 0 1-48.4-23.8zm-72.7 7.8a174.2 174.2 0 0 1-54.4 32.4c10 22.6 22.8 42.8 37.5 60.4 9.1-29 14.1-60.6 16.9-92.8z"/></svg>