<svg viewBox="0 0 470 470" xmlns="http://www.w3.org/2000/svg"><path d="M119.2 40H47.5a7.5 7.5 0 0 0 0 15h71.7a7.5 7.5 0 0 0 0-15zM119.2 70H47.5a7.5 7.5 0 0 0 0 15h71.7a7.5 7.5 0 0 0 0-15zM119.2 100H47.5a7.5 7.5 0 0 0 0 15h71.7a7.5 7.5 0 0 0 0-15zM119.2 325H47.5a7.5 7.5 0 0 0 0 15h71.7a7.5 7.5 0 0 0 0-15zM119.2 355H47.5a7.5 7.5 0 0 0 0 15h71.7a7.5 7.5 0 0 0 0-15zM119.2 385H47.5a7.5 7.5 0 0 0 0 15h71.7a7.5 7.5 0 0 0 0-15zM62.5 242.5a22.5 22.5 0 1 0 0-45 22.5 22.5 0 0 0 0 45zm0-30a7.5 7.5 0 1 1 0 15 7.5 7.5 0 0 1 0-15zM270.8 40h-71.6a7.5 7.5 0 0 0 0 15h71.6a7.5 7.5 0 1 0 0-15zM270.8 70h-71.6a7.5 7.5 0 0 0 0 15h71.6a7.5 7.5 0 1 0 0-15zM270.8 100h-71.6a7.5 7.5 0 0 0 0 15h71.6a7.5 7.5 0 1 0 0-15zM270.8 325h-71.6a7.5 7.5 0 0 0 0 15h71.6a7.5 7.5 0 1 0 0-15zM270.8 355h-71.6a7.5 7.5 0 0 0 0 15h71.6a7.5 7.5 0 1 0 0-15zM270.8 385h-71.6a7.5 7.5 0 0 0 0 15h71.6a7.5 7.5 0 1 0 0-15zM214.2 242.5a22.5 22.5 0 1 0 0-45 22.5 22.5 0 0 0 0 45zm0-30a7.5 7.5 0 1 1 0 15 7.5 7.5 0 0 1 0-15zM350.8 55h71.7a7.5 7.5 0 1 0 0-15h-71.7a7.5 7.5 0 1 0 0 15zM422.5 70h-71.7a7.5 7.5 0 1 0 0 15h71.7a7.5 7.5 0 1 0 0-15zM422.5 100h-71.7a7.5 7.5 0 1 0 0 15h71.7a7.5 7.5 0 1 0 0-15zM422.5 325h-71.7a7.5 7.5 0 1 0 0 15h71.7a7.5 7.5 0 1 0 0-15zM422.5 355h-71.7a7.5 7.5 0 1 0 0 15h71.7a7.5 7.5 0 1 0 0-15zM422.5 385h-71.7a7.5 7.5 0 1 0 0 15h71.7a7.5 7.5 0 1 0 0-15zM365.8 242.5a22.5 22.5 0 1 0 0-45 22.5 22.5 0 0 0 0 45zm0-30a7.5 7.5 0 1 1 0 15 7.5 7.5 0 0 1 0-15z"/><path d="M462.5 0H7.5A7.5 7.5 0 0 0 0 7.5v455a7.5 7.5 0 0 0 15 0V440h136.7v22.5a7.5 7.5 0 0 0 15 0V440h136.6v22.5a7.5 7.5 0 1 0 15 0V440H455v22.5a7.5 7.5 0 1 0 15 0V7.5c0-4.1-3.4-7.5-7.5-7.5zM318.3 425V107.5a7.5 7.5 0 1 0-15 0V425H166.7v-92.5a7.5 7.5 0 0 0-15 0V425H15V15h136.7v287.5a7.5 7.5 0 0 0 15 0V15h136.6v62.5a7.5 7.5 0 1 0 15 0V15H455v410H318.3z"/></svg>