<svg width="100%" height="100%" viewBox="0 0 512 512" xmlns="http://www.w3.org/2000/svg"><path d="M467.3 16.8H221.5a11 11 0 0 0-11.1 11v86.5l12.3-7.6c3.1-2 6.4-3.3 9.8-4V39h223.7v160H232.5v-26L210.4 187V210a11 11 0 0 0 11 11h246c6 0 11-4.9 11-11V27.9c0-6.2-5-11.1-11-11.1z"/><path d="M306 78.4a8.5 8.5 0 0 0-12-1.5l-38.2 30.2a30.7 30.7 0 0 1 11.1 13l37.7-29.8c3.7-2.9 4.3-8.2 1.4-12z"/><circle cx="121.5" cy="31.9" r="31.9"/><path d="M252 124.7c-4.5-7.2-14-9.4-21.2-5l-31.2 19.4-.2-28.8A36.5 36.5 0 0 0 163 74h-15.2c-13 33.6-8.8 21.2-19.8 49.7l4.7-20.2c.3-1.5 0-3-.7-4.4l-6.2-11.4 5.5-10c.8-1.6-.3-3.4-2-3.4h-15.2a2.3 2.3 0 0 0-2 3.3l5.5 10.1-6.2 11.5c-.8 1.3-1 2.8-.7 4.3l4 20.2L95.6 74H80c-20 0-36.4 16.3-36.5 36.3l-.5 113.2c0 8.5 6.8 15.5 15.3 15.5s15.4-6.8 15.5-15.3l.5-113.2a3 3 0 0 1 6.2 0v160.4a51.4 51.4 0 0 1 37 13.4v-62.6h8v71.8a51.4 51.4 0 0 1 1.4 55.7c4.8 0 9.6.7 14 1.9 6.1-5.3 13.5-9.2 21.5-11.2 0-279.3-.3-106.6-.3-229.4a3.2 3.2 0 0 1 6.4 0l.3 56.3a15.4 15.4 0 0 0 23.5 13L247 146c7.3-4.4 9.5-14 5-21.2z"/><circle cx="429.2" cy="322.8" r="33.8"/><path d="M511.5 405.8a38.7 38.7 0 0 0-38.6-38.4H388a51.3 51.3 0 0 1-1.8 50.3c18.9.8 35.5 11 45.1 26H472v-37.5a3.4 3.4 0 0 1 6.8-.2l.2 37.6h32.6l-.1-37.8zM290.5 391c0-8.7 2.1-16.8 5.9-24H221a51.3 51.3 0 0 1-2 49.8c15.5 0 29.9 6.5 40.2 17.3 10.1-9.9 23.8-16 38.9-16-5.3-8.5-7.7-18-7.7-27.1zM264.8 288.7a33.8 33.8 0 1 0 0 67.6 33.8 33.8 0 0 0 0-67.6zM123.2 390c0-8.2 2-16 5.4-23H39.1c-21 0-38.4 17.2-38.6 38.4l-.1 38.2H33l.2-38a3.4 3.4 0 0 1 6.8 0v38h45.7a56.2 56.2 0 0 1 45.3-26.4c-5-8-7.8-17.3-7.8-27.1zM82.8 288.7a33.8 33.8 0 1 0 0 67.6 33.8 33.8 0 0 0 0-67.6zM422.5 473.8a38.7 38.7 0 0 0-38.6-38.4h-85.5a39.7 39.7 0 0 0-39.7 38.4l-.3-.9a38.7 38.7 0 0 0-38.6-38.4h-85.5A39.7 39.7 0 0 0 94.6 473l-.2 39.1h32.7l.2-39a3 3 0 0 1 5.8 0v39h86.4v-39a3.1 3.1 0 0 1 6.3 0l.2 39h65.1l.2-38a3 3 0 0 1 6 0v38h86.3v-38a3.1 3.1 0 0 1 6.3 0l.2 38h32.6l-.2-38.2z"/><circle cx="175.9" cy="389.9" r="34.2"/><circle cx="342.1" cy="390.8" r="34.2"/></svg>