<svg width="100%" height="100%" viewBox="0 0 49.49 49.49" xmlns="http://www.w3.org/2000/svg"><path d="M1.43 28.08c1.53.2 3.65.85 3.65 1.6a.5.5 0 0 0 .87.32c.03-.02 2.69-2.91 7.88-2.91 5.4 0 8.5 2.55 8.5 3.25a.5.5 0 0 0 .97.18c.01-.05 1.9-4.85 4.92-4.85h.02c1.56.01 4.37.04 6.08 2.14l.35.49c.16.22.47.27.69.11s.28-.45.14-.68a6.58 6.58 0 0 0-.38-.52c-1.65-2.32-8.54-12.15-8.54-15.8a.5.5 0 0 0-.82-.38c-.06.05-5.74 4.69-10.15 1.04-.05-.06-1.28-1.38-.47-2.44a.5.5 0 0 0-.2-.76c-.01 0-.81-.36-1.06-1.1-.17-.48-.07-1.05.3-1.7 1.36-2.39 3.7-4.43 3.78-4.5.01-.01 1.18-1.34 3.88.12l1.24.65c3.6 1.9 10.33 5.44 12.92 9.11.55.77 1.25 1.66 2.06 2.68 3.64 4.58 9.12 11.49 9.43 19.69-.25.54-1.71 3.4-5.57 5.77-3.95 2.42-11.3 4.78-23.82 2.33a.5.5 0 0 0-.39.08.5.5 0 0 0-.2.34c-.01.04-.6 3.97-2.72 6.32a.5.5 0 1 0 .75.67c1.87-2.08 2.62-5.13 2.86-6.33 3.57.67 6.73.95 9.54.95 16.35 0 20.48-9.74 20.52-9.85a.5.5 0 0 0 .04-.2c-.28-8.58-5.92-15.69-9.65-20.4a60.2 60.2 0 0 1-2.03-2.63C34.1 7.01 27.23 3.4 23.55 1.45L22.32.8c-3.4-1.83-5.05.04-5.06.07-.1.08-2.5 2.16-3.95 4.71-.51.9-.64 1.76-.37 2.53.23.68.74 1.14 1.12 1.4-.56 1.27.26 2.64.87 3.29 4.08 3.37 8.94.73 10.75-.48.65 3.41 4.48 9.44 6.94 13.04a11.85 11.85 0 0 0-4.45-.7c-2.72-.03-4.56 2.93-5.36 4.51-1.27-1.5-4.7-3.1-8.97-3.1-4.28 0-6.95 1.79-8.05 2.72-.9-1.23-3.6-1.63-4.23-1.7a.5.5 0 0 0-.55.43.5.5 0 0 0 .42.56z"/><path d="M30.74 39.53a7.46 7.46 0 0 0 7.38-5 .5.5 0 0 0-.27-.66.5.5 0 0 0-.65.28 6.51 6.51 0 0 1-3.67 3.9c-3.6 1.4-8.1-.72-8.15-.75a.5.5 0 1 0-.43.9c.14.08 2.79 1.33 5.79 1.33z"/></svg>